<svg height='100px' width='100px'  fill="#000000" xmlns="http://www.w3.org/2000/svg" xmlns:xlink="http://www.w3.org/1999/xlink" version="1.0" x="0px" y="0px" viewBox="0 0 100 100" enable-background="new 0 0 100 100" xml:space="preserve"><path d="M88.6089325,13.416626H10.847826c-3.3797607,0-6.1195068,2.7398071-6.1195068,6.1195068V86.583313h90V19.5361328  C94.7283173,16.1564331,91.9885712,13.416626,88.6089325,13.416626z M91.2283173,82.75h-83v-55.5h83V82.75z"></path><path d="M59.5132294,66.416626H39.9434052c-2.520752,0-4.583252,2.0625-4.583252,4.583374  c0,2.520813,2.0625,4.583313,4.583252,4.583313h19.5698242c2.520752,0,4.583252-2.0625,4.583252-4.583313  C64.0964813,68.479126,62.0339813,66.416626,59.5132294,66.416626z"></path><g><polygon points="38.655056,40.8102837 34.8246307,36.9798584 28.6449852,43.1595039 22.4653397,36.9798584 18.6349144,40.8102837    24.8145599,46.9899292 18.6349144,53.1695747 22.4653397,57 28.6449852,50.8202858 34.8246307,57 38.655056,53.1695747    32.4754105,46.9899292  "></polygon><polygon points="80.8217239,40.8102837 76.9912949,36.9798584 70.8116531,43.1595039 64.6320038,36.9798584 60.8015823,40.8102837    66.9812241,46.9899292 60.8015823,53.1695747 64.6320038,57 70.8116531,50.8202858 76.9912949,57 80.8217239,53.1695747    74.6420746,46.9899292  "></polygon></g></svg>